<svg xmlns="http://www.w3.org/2000/svg" version="1.1" viewBox="-5.0 -10.0 110.0 110.0">
 <path fill="#ffffff" d="m37.133 70.004c-3.8945-0.042968-4.082-0.050781-4.4375-0.21875-0.67187-0.3125-1.8594-1.0938-2.2148-1.4609-0.64062-0.66016-0.60547-0.089844-0.60547-9.3906 0-5.5273 0.03125-8.4102 0.085938-8.6172 0.16797-0.60156 0.85937-1.0977 2.2344-1.5938 1.1758-0.42578 1.6289-0.46875 3.7188-0.36719 1.3125 0.066406 3.7695 0.070312 8.1055 0.023437 9.1367-0.10156 10.906-0.089844 11.359 0.082032 0.42969 0.16406 0.46094 0.23047 0.52344 1.0156l0.046875 0.58984-0.86328 0.042969c-0.47266 0.023437-1.3828 0.10156-2.0234 0.17188-3.5156 0.39844-9.8281 0.58203-13.688 0.39062-2.0312-0.097656-4.8203-0.30078-5.3594-0.38672-0.24219-0.039062-0.34766-0.007812-0.53906 0.15625l-0.23828 0.20703-0.046875 7.1328-0.64844 0.03125c-0.54297 0.023438-0.69922 0.066406-0.97656 0.25781-0.56641 0.39063-0.84375 1.0664-0.6875 1.6602 0.21094 0.78906 0.93359 1.3008 1.8398 1.3008h0.47656v3.4336c0 4.1367-0.097656 3.7969 1.1328 3.8828 1.707 0.12109 10.008 0.17188 12.516 0.074219 2.4805-0.09375 6.082-0.30469 6.5547-0.38281 0.13672-0.023437 0.73047-0.0625 1.3203-0.09375l1.0703-0.050781-0.042968 0.39062c-0.050782 0.46484-0.17969 0.60547-0.86719 0.95312-0.99219 0.5-2.1289 0.62891-6.543 0.75-3.0898 0.082031-3.7266 0.085938-11.195 0.003907zm21.633-2.1328c-0.058594-0.023438-0.10547-0.18359-0.10547-0.36719 0-0.21484-0.054687-0.38281-0.16406-0.49219-0.15234-0.15234-0.27734-0.16406-1.6602-0.16406h-1.4922v-6.1406h0.73047c0.66406 0 0.76562-0.023437 1.1055-0.23828 0.44141-0.28125 0.70703-0.66797 0.78125-1.1562 0.14453-0.91406-0.72656-1.8398-1.7344-1.8398-0.19922 0-0.48437-0.023437-0.625-0.050781l-0.26172-0.050781 0.046875-6.1562 3.1016-0.046875 0.17188-0.21484c0.13281-0.16797 0.17188-0.33594 0.17188-0.73828v-0.51953l0.72656-0.054687c0.39844-0.027344 0.86719-0.074219 1.0352-0.097656l0.3125-0.042969v8.5977c0 9.3164-0.023438 8.8047 0.44922 9.2461 0.38672 0.35938 0.29688 0.47266-0.41797 0.53516-0.72656 0.0625-2.0117 0.0625-2.1641 0zm4.8242-0.62891c0.50391-5.3633 0.58203-9.7031 0.25781-13.957-0.066406-0.86719-0.12109-1.6797-0.12109-1.8047v-0.22656h2.3984l0.042969 0.26953c0.24219 1.4961 0.36719 7.6289 0.22266 10.598-0.089844 1.7773-0.25781 4.0352-0.39062 5.2461l-0.054688 0.47656h-2.4062zm-1.4258-0.66016c-0.074218-0.074219-0.097656-1.9766-0.097656-8.0469 0-6.6953 0.019532-7.9492 0.11328-7.9492 0.23437 0 0.31641 0.26953 0.42578 1.3867 0.37891 3.8398 0.39062 8.8242 0.039062 13.258-0.046875 0.59375-0.10547 1.1641-0.125 1.2656-0.042969 0.20312-0.19922 0.24219-0.35156 0.085937zm-17.605-1.3672c-2.5547-0.050782-6.5898-0.25781-9.5195-0.49219l-0.68359-0.054687v-3.7031l0.26953-0.042969c0.14844-0.023437 1.0898-0.082031 2.0938-0.12891 4.9766-0.23828 10.418-0.30859 15.16-0.19531l2.3008 0.054688v4.6094l-4.3359-0.015625c-2.3828-0.007813-4.7656-0.023438-5.2891-0.035156zm22.844-1.1172c0.027344-0.24219 0.097656-1.6445 0.14844-3.1133 0.097657-2.6836 0.019531-6.5195-0.17969-8.7305-0.042969-0.47656-0.058594-0.88281-0.039063-0.90625 0.019531-0.019531 0.88672-0.125 1.9258-0.23047 7.9453-0.80078 14.895-2.207 19.184-3.8867 2.1797-0.85156 4.6445-2.2734 5.8203-3.3516 0.30469-0.27734 0.59375-0.50781 0.64453-0.50781 0.066406 0 0.089844 1.7148 0.089844 6.0391v6.0391l-0.22266 0.45312c-0.60547 1.2188-2.8984 2.9336-5.4844 4.0938-4.1289 1.8555-10.906 3.3555-19.098 4.2344-1.0742 0.11328-2.1523 0.23047-2.3984 0.26172l-0.44922 0.050781zm-40.43-0.19922c-4.8984-0.65625-9.9336-1.6875-12.93-2.6523-2.4609-0.79297-4.4805-1.7188-6.1914-2.8359-1.0039-0.65625-2.3242-1.9453-2.6211-2.5547l-0.19922-0.41406-0.023438-6.0352c-0.015624-4.3867 0.003907-6.0352 0.070313-6.0352 0.050781 0 0.37891 0.24609 0.72656 0.54297 2.8594 2.4492 7.2383 4.2188 13.66 5.5195 2.1953 0.44531 5.0859 0.92578 7.1367 1.1914 0.91406 0.11719 1.7812 0.23438 1.9297 0.25781l0.26953 0.042969v13.18l-0.1875-0.007813c-0.10156-0.003906-0.83984-0.097656-1.6367-0.20312zm5.1562-4.1719c-0.22656-0.22656-0.22656-0.44141-0.003906-0.64062 0.15625-0.14063 0.36719-0.16406 1.8867-0.21094 0.94141-0.03125 2.7773-0.097656 4.0781-0.14844 6.5312-0.25391 15.051-0.33594 17.254-0.16797 1.25 0.09375 1.5234 0.19922 1.4805 0.55469-0.015625 0.11719-0.11719 0.28125-0.23438 0.36719-0.19531 0.14453-0.33203 0.14844-2.3633 0.066406-4.6016-0.17969-13.754-0.09375-18.293 0.17188-3.5469 0.20703-3.6094 0.20703-3.8047 0.011719zm2.2266-5.1133v-3.1328l0.64453 0.050781c3.8789 0.31641 6.207 0.39844 12.859 0.44531l6.3242 0.042969v5.3672l-1.6797-0.050781c-2.4062-0.070313-11.148 0.11328-16.84 0.35156l-1.3047 0.054688zm28.766-4.7266c-0.125-0.15234-0.22656-0.31641-0.22656-0.36719 0-0.0625 0.33984-0.09375 1.0742-0.09375h1.0742l0.21094 0.27734c0.11719 0.15234 0.21094 0.32031 0.21094 0.375 0 0.066406-0.30859 0.09375-1.0586 0.089844l-1.0586-0.007813zm-46.77-2.3242c-3.1914-0.83984-5.457-1.7148-7.5703-2.9297l-0.80859-0.46484v-3l2.957-2.5312c1.625-1.3906 3.1094-2.6133 3.2969-2.7148 0.58984-0.32031 3.1758-1.3086 4.9062-1.875 5.2227-1.7109 10.137-2.7461 17.008-3.5742 2.918-0.35156 7.8477-0.54688 13.855-0.54688 6.0859 0 11.016 0.19141 13.938 0.54688 7.1094 0.85547 12.309 1.9727 17.672 3.793 7.2031 2.4453 10.645 4.9062 10.469 7.4805-0.0625 0.92188-0.39062 1.6328-1.0469 2.2812-1.1172 1.1055-2.4375 1.918-3.8945 2.3945-0.42969 0.14062-0.82812 0.29688-0.88672 0.34375-0.11719 0.097656-2.1289 0.69531-3.3242 0.98828l-0.75781 0.18359-1.4414-0.46875c-5.8008-1.8867-12.938-3.2148-20.523-3.8164-3.4805-0.27734-5.082-0.32812-10.164-0.32812-5.0898 0-6.8594 0.054687-10.164 0.32812-7.9805 0.65234-15.402 2.0625-21.148 4.0195-0.40625 0.14062-0.80078 0.25-0.87109 0.24609-0.070312-0.003907-0.74609-0.16797-1.5-0.36719zm70.102-3.8984c0.34766-0.17969 0.58203-0.51953 0.58203-0.84766 0-0.8125-0.79297-1.2734-1.4766-0.85547-0.66016 0.40234-0.60938 1.3438 0.09375 1.6875 0.33203 0.16406 0.50391 0.16797 0.80078 0.011718zm-7.4648-2.6562c0.34766-0.17969 0.58203-0.51953 0.58203-0.84766 0-0.8125-0.79297-1.2734-1.4766-0.85547-0.66016 0.40234-0.60938 1.3438 0.09375 1.6875 0.33203 0.16406 0.50391 0.16797 0.80078 0.011718zm-9.125-2.0742c0.34766-0.17969 0.58203-0.51953 0.58203-0.84766 0-0.8125-0.79297-1.2734-1.4766-0.85547-0.66016 0.40234-0.60938 1.3438 0.09375 1.6875 0.33203 0.16406 0.50391 0.16797 0.80078 0.011719zm-30.695-0.74609c0.34766-0.17969 0.58203-0.51953 0.58203-0.84766 0-0.8125-0.79297-1.2734-1.4766-0.85547-0.66016 0.40234-0.60938 1.3438 0.09375 1.6875 0.33203 0.16406 0.50391 0.16797 0.80078 0.011719zm21.57-0.33203c0.34766-0.17969 0.58203-0.51953 0.58203-0.84766 0-0.8125-0.79297-1.2734-1.4766-0.85547-0.66016 0.40234-0.60938 1.3438 0.09375 1.6875 0.33203 0.16406 0.50391 0.16797 0.80078 0.011718zm-10.785-0.25c0.34766-0.17969 0.58203-0.51953 0.58203-0.84766 0-0.8125-0.79297-1.2734-1.4766-0.85547-0.66016 0.40234-0.60938 1.3438 0.09375 1.6875 0.33203 0.16406 0.50391 0.16797 0.80078 0.011718zm42.812 5.875c0-0.03125 0.074219-0.20703 0.16406-0.39453 0.25781-0.53125 0.36719-1.4492 0.25391-2.1016-0.36328-2.0898-2.125-3.7891-5.7695-5.5742-0.82031-0.40234-2.1094-0.97266-2.8633-1.2695-1.4102-0.55469-3.8672-1.3867-4.1016-1.3867-0.070313 0-0.13281-0.054687-0.13281-0.125 0-0.16016 0.089844-0.15625 0.78906 0.035156 0.32031 0.089844 1.0898 0.27734 1.7109 0.41797 4.8047 1.0938 8.9531 2.9961 11.027 5.0586 0.93359 0.92969 1.1562 1.3711 1.1562 2.2812 0 0.5625-0.035156 0.74609-0.22266 1.125-0.34766 0.70703-2.0156 2.3008-2.0156 1.9297zm-86.711-0.92188c-0.82813-0.86719-1.0234-1.2734-1.0195-2.1328 0.003906-0.91797 0.19531-1.2852 1.1953-2.293 2.0352-2.0508 5.9375-3.8516 10.832-5.0039 0.73047-0.17188 1.5898-0.38281 1.9062-0.46875 0.6875-0.1875 0.70703-0.1875 0.70312-0.054687 0 0.0625-0.76562 0.35547-1.8477 0.71094-1.0156 0.33594-2.3984 0.83984-3.0781 1.125l-1.2344 0.52344-2.9141 2.4805c-1.6016 1.3672-3.0898 2.6484-3.3086 2.8477l-0.39453 0.36328v1.2734c0 1.0234-0.023437 1.2734-0.11328 1.2734-0.0625 0-0.39062-0.28906-0.73047-0.64453z"/>
</svg>
